<?xml version="1.0" encoding="utf-8"?>
<!-- Generator: Adobe Illustrator 25.2.1, SVG Export Plug-In . SVG Version: 6.00 Build 0)  -->
<svg version="1.1" id="Layer_1" xmlns="http://www.w3.org/2000/svg" xmlns:xlink="http://www.w3.org/1999/xlink" x="0px" y="0px"
	 viewBox="0 0 20 6.63" style="enable-background:new 0 0 20 6.63;" xml:space="preserve">
<style type="text/css">
	.st0{fill:#CCCCCC;}
</style>
<g>
	<g>
		<g>
			<path class="st0" d="M14.22,4.48V3.67h0.68c0.19-0.18,0-0.35,0-0.35h-0.69V2.4h1.4c0.19-0.18,0.01-0.35,0.01-0.35h-1.77v2.44
				h-0.15V3.33h-1.23c-0.2,0.19,0,0.35,0,0.35h0.86v0.82h-1.29V2.4h1.59c0.19-0.18,0-0.35,0-0.35h-1.96v2.23l-1.25-2.34L9.2,4.28
				V3.27H7.56V2.4h1.56c0.18-0.17,0-0.35,0-0.35l-1.93,0v1.57h1.63v0.86H7.27C7.09,4.66,7.26,4.83,7.26,4.83h2.06l0.61-1.16h1.01
				l0.62,1.16h4.05c0.18-0.18,0.01-0.35,0.01-0.35H14.22z M10.12,3.33l0.32-0.62l0.33,0.62H10.12z"/>
		</g>
	</g>
</g>
<g>
	<g>
		<path class="st0" d="M7.66,6.61L7.45,6.21H7.32v0.39H7.07V5.51h0.39c0.23,0,0.42,0.08,0.42,0.34c0,0.16-0.08,0.26-0.19,0.32
			l0.25,0.44H7.66z M7.32,6.02h0.13c0.13,0,0.2-0.06,0.2-0.16s-0.07-0.14-0.2-0.14H7.32V6.02z"/>
	</g>
	<g>
		<path class="st0" d="M8.64,6.35H8.31L8.24,6.61H7.99l0.34-1.09h0.3l0.34,1.09H8.71L8.64,6.35z M8.59,6.15l-0.03-0.1
			C8.54,5.95,8.51,5.82,8.48,5.7H8.47C8.45,5.82,8.42,5.95,8.39,6.05l-0.03,0.1H8.59z"/>
	</g>
	<g>
		<path class="st0" d="M9.28,5.72h-0.3V5.51h0.85v0.21h-0.3v0.89H9.28V5.72z"/>
	</g>
	<g>
		<path class="st0" d="M10.03,5.51h0.69v0.21h-0.44v0.22h0.37v0.21h-0.37V6.4h0.45v0.21h-0.7V5.51z"/>
	</g>
	<g>
		<path class="st0" d="M10.99,5.51h0.31c0.34,0,0.55,0.17,0.55,0.54c0,0.38-0.21,0.55-0.53,0.55h-0.32V5.51z M11.29,6.41
			c0.18,0,0.31-0.09,0.31-0.35s-0.13-0.34-0.31-0.34h-0.05v0.69H11.29z"/>
	</g>
	<g>
		<path class="st0" d="M12.56,6.3c0.08,0.07,0.18,0.11,0.27,0.11c0.1,0,0.15-0.04,0.15-0.11c0-0.07-0.06-0.09-0.16-0.13l-0.14-0.06
			c-0.11-0.05-0.22-0.14-0.22-0.3c0-0.18,0.16-0.33,0.39-0.33c0.13,0,0.26,0.05,0.35,0.14l-0.12,0.16C13,5.74,12.94,5.71,12.85,5.71
			c-0.08,0-0.14,0.04-0.14,0.1c0,0.07,0.07,0.09,0.17,0.13l0.14,0.06c0.13,0.05,0.22,0.14,0.22,0.3c0,0.18-0.15,0.34-0.41,0.34
			c-0.14,0-0.29-0.05-0.41-0.16L12.56,6.3z"/>
	</g>
	<g>
		<path class="st0" d="M13.45,5.51h0.25v0.61c0,0.21,0.07,0.29,0.19,0.29s0.19-0.07,0.19-0.29V5.51h0.24V6.1
			c0,0.37-0.15,0.53-0.43,0.53s-0.44-0.16-0.44-0.53V5.51z"/>
	</g>
	<g>
		<path class="st0" d="M14.61,5.51h0.4c0.24,0,0.43,0.09,0.43,0.35c0,0.26-0.2,0.37-0.43,0.37h-0.15v0.37h-0.25V5.51z M14.99,6.04
			c0.14,0,0.2-0.06,0.2-0.17c0-0.11-0.07-0.16-0.2-0.16h-0.14v0.33H14.99z"/>
	</g>
	<g>
		<path class="st0" d="M15.67,5.51h0.4c0.24,0,0.43,0.09,0.43,0.35c0,0.26-0.2,0.37-0.43,0.37h-0.15v0.37h-0.25V5.51z M16.05,6.04
			c0.14,0,0.2-0.06,0.2-0.17c0-0.11-0.07-0.16-0.2-0.16h-0.14v0.33H16.05z"/>
	</g>
	<g>
		<path class="st0" d="M16.72,5.51h0.25V6.4h0.43v0.21h-0.68V5.51z"/>
	</g>
	<g>
		<path class="st0" d="M17.63,5.51h0.25v1.09h-0.25V5.51z"/>
	</g>
	<g>
		<path class="st0" d="M18.17,5.51h0.69v0.21h-0.44v0.22h0.37v0.21h-0.37V6.4h0.45v0.21h-0.7V5.51z"/>
	</g>
	<g>
		<path class="st0" d="M19.72,6.61l-0.21-0.39h-0.13v0.39h-0.25V5.51h0.39c0.23,0,0.42,0.08,0.42,0.34c0,0.16-0.08,0.26-0.19,0.32
			L20,6.61H19.72z M19.38,6.02h0.13c0.13,0,0.2-0.06,0.2-0.16s-0.07-0.14-0.2-0.14h-0.13V6.02z"/>
	</g>
</g>
<g>
	<path class="st0" d="M3.29,0C1.47,0,0,1.47,0,3.29s1.47,3.29,3.29,3.29c1.82,0,3.29-1.47,3.29-3.29S5.1,0,3.29,0z M4.11,2.75
		c0,0.12-0.05,0.21-0.16,0.29C3.87,3.09,3.74,3.14,3.56,3.19c0.05,0.36,0.13,0.86,0.26,1.5c0.04,0.23,0.11,0.54,0.2,0.94L3.6,5.33
		C3.45,4.67,3.3,4.01,3.15,3.35c-0.16,0.04-0.32,0.09-0.5,0.14C2.48,3.54,2.34,3.59,2.25,3.65C2.1,4.33,2.01,4.74,1.96,4.9
		C1.8,5.43,1.63,5.69,1.44,5.69c-0.08,0-0.13-0.04-0.15-0.13C1.28,5.5,1.37,5.18,1.57,4.58C1.68,4.24,1.75,4,1.77,3.86
		C1.68,3.89,1.52,3.97,1.28,4.1c-0.4,0.21-0.62,0.31-0.66,0.31c-0.02,0-0.09-0.07-0.2-0.21C0.38,4.16,0.33,4.09,0.26,3.99
		c0.29-0.11,0.51-0.2,0.67-0.26c0.5-0.2,0.86-0.34,1.07-0.44c0.1-0.27,0.23-0.88,0.41-1.82C2.49,1.03,2.59,0.63,2.7,0.3
		c0.1,0.05,0.18,0.1,0.22,0.15C2.97,0.5,3,0.55,3.02,0.6C3.01,0.69,3.01,0.77,3.01,0.85c0,0.05,0.01,0.12,0.03,0.21l0.41,1.69
		C3.5,2.73,3.59,2.7,3.73,2.68c0.13-0.03,0.26-0.05,0.36-0.06C4.1,2.64,4.11,2.67,4.11,2.68C4.11,2.71,4.11,2.73,4.11,2.75z
		 M5.59,3.56c0.06,0.38,0.1,0.63,0.1,0.75c0,0.05,0,0.09,0,0.12C5.58,4.38,5.49,4.3,5.42,4.19C5.35,4.08,5.3,3.96,5.26,3.81
		c-0.04-0.14-0.07-0.3-0.1-0.47C5.13,3.17,5.12,3.06,5.11,3.01C4.95,3.07,4.77,3.13,4.56,3.19C4.56,3.16,4.55,3.13,4.55,3.1
		c0-0.04,0-0.06,0-0.07c0-0.13,0.04-0.24,0.12-0.34C4.75,2.6,4.86,2.51,5,2.44C4.96,2.26,4.91,2,4.85,1.65
		C4.83,1.54,4.81,1.38,4.78,1.19c0.04,0,0.12,0.05,0.23,0.14C5.1,1.4,5.17,1.46,5.23,1.49c0,0.16,0,0.29,0.01,0.37
		c0.01,0.09,0.03,0.22,0.08,0.41l0.36-0.2l0.48,0.1C6.19,2.28,6.13,2.4,5.98,2.53c-0.13,0.11-0.3,0.21-0.52,0.32
		C5.48,2.95,5.52,3.19,5.59,3.56z"/>
	<path class="st0" d="M2.82,1.59L2.45,3.1c0.16-0.04,0.3-0.09,0.41-0.14c0.11-0.05,0.18-0.08,0.21-0.09
		C3.03,2.71,2.98,2.51,2.94,2.26C2.89,2,2.85,1.78,2.82,1.59z"/>
</g>
<g>
	<g>
		<path class="st0" d="M7.22,1.32C7.56,0.99,7.8,0.76,7.8,0.57c0-0.13-0.07-0.2-0.19-0.2c-0.1,0-0.17,0.07-0.24,0.14L7.2,0.34
			C7.34,0.2,7.46,0.12,7.66,0.12c0.27,0,0.45,0.17,0.45,0.43c0,0.23-0.21,0.47-0.43,0.7C7.74,1.24,7.83,1.23,7.9,1.23h0.27V1.5H7.22
			V1.32z"/>
	</g>
	<g>
		<path class="st0" d="M8.79,0.82c0-0.46,0.19-0.69,0.48-0.69s0.48,0.24,0.48,0.69s-0.19,0.7-0.48,0.7S8.79,1.28,8.79,0.82z
			 M9.46,0.82c0-0.37-0.08-0.45-0.19-0.45c-0.1,0-0.19,0.08-0.19,0.45c0,0.37,0.08,0.46,0.19,0.46C9.38,1.28,9.46,1.18,9.46,0.82z"
			/>
	</g>
	<g>
		<path class="st0" d="M10.37,1.32c0.34-0.32,0.59-0.56,0.59-0.75c0-0.13-0.07-0.2-0.19-0.2c-0.1,0-0.17,0.07-0.24,0.14l-0.17-0.17
			c0.13-0.14,0.26-0.21,0.45-0.21c0.27,0,0.45,0.17,0.45,0.43c0,0.23-0.21,0.47-0.43,0.7c0.07-0.01,0.16-0.02,0.22-0.02h0.27V1.5
			h-0.95V1.32z"/>
	</g>
	<g>
		<path class="st0" d="M12.01,1.24h0.29V0.47h-0.25V0.27c0.15-0.03,0.24-0.07,0.34-0.12h0.23v1.09h0.25V1.5h-0.86V1.24z"/>
	</g>
</g>
</svg>
