<?xml version="1.0" encoding="utf-8"?>
<!-- Generator: Adobe Illustrator 25.2.1, SVG Export Plug-In . SVG Version: 6.00 Build 0)  -->
<svg version="1.1" id="Layer_1" xmlns="http://www.w3.org/2000/svg" xmlns:xlink="http://www.w3.org/1999/xlink" x="0px" y="0px"
	 viewBox="0 0 50 75.38" style="enable-background:new 0 0 50 75.38;" xml:space="preserve">
<style type="text/css">
	.st0{fill:none;}
	.st1{fill:#C71317;}
</style>
<g>
	<path class="st0" d="M15.8,36.79c-0.28-0.09-0.72-0.13-1.33-0.13h-1.04v4.44h1.04c0.93,0,1.58-0.17,1.93-0.52
		c0.36-0.35,0.54-0.91,0.54-1.7c0-0.58-0.12-1.06-0.35-1.42C16.34,37.09,16.08,36.87,15.8,36.79z"/>
	<path class="st0" d="M12.69,31.22c0.43,0.52,0.94,0.48,1.98-0.17l0,0c0.81-0.5,2.44-2.43,3.57-4.22l0.46-0.73l-2.08,1.05
		C13.4,28.78,11.92,30.3,12.69,31.22z"/>
	<path class="st0" d="M27.94,22.63l-0.76-0.94c-0.48-0.5-1.29-1.55-1.8-2.33c-0.67-0.88-1.01-1.51-1.01-1.51s-0.49,1.58-0.9,2.54
		l-1.26,3.11l-0.37,0.71c0,0,1.94-0.64,2.93-0.89C25.81,23.05,27.94,22.63,27.94,22.63z"/>
	<path class="st0" d="M23.83,13.85c0.19-0.63,0.47-1.99,0.63-3.02l0,0c0.12-1.02,0.17-2.04-0.15-2.56c-0.91-1-2.01-0.17-1.82,2.2
		c0.06,0.8,0.26,2.16,0.53,3L23.49,15L23.83,13.85z"/>
	<path class="st0" d="M33.54,25.23c1.01,0.31,1.6,0.28,2.04-0.04l0,0c0.79-0.55,0.67-1.67-0.22-2.12c-0.69-0.35-1.25-0.42-3.06-0.4
		c-1.11,0.08-2.89,0.3-3.19,0.37c0,0,0.98,0.68,1.41,0.93C31.1,24.3,32.51,24.91,33.54,25.23z"/>
	<polygon class="st0" points="36.72,2.45 36.72,2.67 36.75,2.48 	"/>
	<path class="st0" d="M23.74,36.71h-0.88v9.35h0.88c1.22,0,2.11-0.42,2.67-1.27c0.55-0.85,0.83-1.99,0.83-3.4
		C27.24,38.27,26.07,36.71,23.74,36.71z"/>
	<path class="st1" d="M21.41,25.1c1.74-0.59,2.33-0.79,3.51-1.11c1.15-0.31,3.48-0.78,3.48-0.78s0.58,0.58,1.41,1.17
		c3.72,2.61,8.15,2.43,8.15,0.16c0-1.79-1.93-3.05-7.58-2.31l-1.78,0.23l-1.43-1.78c-0.76-0.95-1.62-2.15-1.92-2.65l-0.54-0.91
		l0.61-2.35c0.74-2.86,0.81-5.13,0.18-6.38c-0.8-1.61-2.83-1.76-3.46-0.26c-0.46,1.11-0.2,4.18,0.52,6.22l0.59,1.66l-0.85,2.25
		c-0.47,1.24-1.32,3.26-1.88,4.51l-1.03,2.26l-2.65,1.32c-4.21,2.09-5.77,4.07-4.33,5.5c0.73,0.73,2.17,0.67,3.55-0.14
		c1.23-0.72,2.96-2.7,4.43-5.1C20.8,25.99,21.41,25.1,21.41,25.1z M32.3,22.68c1.8-0.03,2.36,0.05,3.06,0.4
		c0.89,0.45,1.01,1.56,0.22,2.12l0,0c-0.44,0.32-1.03,0.35-2.04,0.04c-1.03-0.31-2.43-0.93-3.01-1.26
		c-0.43-0.25-1.41-0.93-1.41-0.93C29.41,22.98,31.19,22.75,32.3,22.68z M23.01,13.47c-0.26-0.84-0.46-2.2-0.53-3
		c-0.19-2.37,0.91-3.2,1.82-2.2c0.33,0.51,0.28,1.54,0.15,2.56l0,0c-0.16,1.03-0.45,2.39-0.63,3.02L23.49,15L23.01,13.47z
		 M22.2,23.51l1.26-3.11c0.4-0.95,0.9-2.54,0.9-2.54s0.34,0.62,1.01,1.51c0.52,0.78,1.33,1.83,1.8,2.33l0.76,0.94
		c0,0-2.12,0.42-3.17,0.69c-0.99,0.26-2.93,0.89-2.93,0.89L22.2,23.51z M18.24,26.84c-1.13,1.79-2.76,3.72-3.57,4.22l0,0
		c-1.04,0.64-1.55,0.68-1.98,0.17c-0.77-0.92,0.71-2.45,3.93-4.07l2.08-1.05L18.24,26.84z"/>
	<path class="st1" d="M16.91,35.31c-0.63-0.19-1.45-0.29-2.45-0.29h-3.15v12.73h2.11v-4.97h1.09c1.22,0,2.12-0.13,2.7-0.4
		c0.59-0.27,1.06-0.7,1.41-1.31c0.35-0.6,0.52-1.32,0.52-2.16c0-0.91-0.21-1.69-0.64-2.34C18.07,35.92,17.54,35.5,16.91,35.31z
		 M16.39,40.57c-0.35,0.35-1,0.52-1.93,0.52h-1.04v-4.44h1.04c0.61,0,1.05,0.04,1.33,0.13c0.29,0.08,0.55,0.3,0.78,0.67
		c0.24,0.36,0.35,0.83,0.35,1.42C16.93,39.66,16.75,40.23,16.39,40.57z"/>
	<path class="st1" d="M26.94,35.76c-0.83-0.49-1.93-0.74-3.32-0.74h-2.86v12.73h3.02c1.45,0,2.57-0.3,3.36-0.9
		c0.79-0.6,1.37-1.38,1.75-2.35c0.38-0.98,0.58-2.09,0.58-3.33c0-1.18-0.21-2.26-0.64-3.23C28.4,36.98,27.77,36.25,26.94,35.76z
		 M26.41,44.8c-0.55,0.85-1.44,1.27-2.67,1.27h-0.88v-9.35h0.88c2.33,0,3.5,1.56,3.5,4.68C27.24,42.81,26.96,43.95,26.41,44.8z"/>
	<polygon class="st1" points="38.55,36.71 38.55,35.03 31.49,35.03 31.49,47.75 33.59,47.75 33.59,42.21 37.57,42.21 37.57,40.52 
		33.59,40.52 33.59,36.71 	"/>
	<path class="st1" d="M49.58,12.7c-0.48-1.07-1.26-1.82-1.26-1.82s0-0.01-0.01-0.01L39.07,1.8c0-0.01-0.01-0.01-0.02-0.02
		c0,0-0.79-0.75-1.96-1.25C35.71-0.06,34.29,0,34.29,0h0.02H6.35C2.85,0,0,2.85,0,6.35v48.77c0,3.5,2.85,6.35,6.35,6.35h13.77v-2.09
		H6.35c-2.38,0-4.26-1.88-4.26-4.26V6.35c0-2.38,1.88-4.26,4.26-4.26l0,0h27.96c0.01,0,0.01,0,0.02,0c0,0,1.12,0.01,1.94,0.36
		c0.16,0.07,0.31,0.14,0.45,0.22l0,0v10.59h10.81c0.06,0.09,0.11,0.19,0.15,0.29c0.22,0.49,0.23,1.38,0.23,1.38
		c0,0.01,0,0.03,0,0.04v40.15c0,2.38-1.88,4.26-4.26,4.26H29.88v2.09h13.77c3.5,0,6.35-2.85,6.35-6.35v-40.1
		C49.99,15.02,50.09,13.84,49.58,12.7z"/>
	<polygon class="st1" points="29.2,63.37 29.2,61.29 29.2,55.21 20.8,55.21 20.8,61.29 20.8,63.37 20.8,64.49 14.11,64.49 25,75.38 
		35.89,64.49 29.2,64.49 	"/>
</g>
</svg>
