<?xml version="1.0" encoding="utf-8"?>
<!-- Generator: Adobe Illustrator 25.2.1, SVG Export Plug-In . SVG Version: 6.00 Build 0)  -->
<svg version="1.1" id="Layer_1" xmlns="http://www.w3.org/2000/svg" xmlns:xlink="http://www.w3.org/1999/xlink" x="0px" y="0px"
	 viewBox="0 0 24 24" style="enable-background:new 0 0 24 24;" xml:space="preserve">
<style type="text/css">
	.st0{fill:none;}
</style>
<g>
	<rect class="st0" width="24" height="24"/>
</g>
<g>
	<g>
		<g>
			<path d="M11.24,15H7.5C6.12,15,5,13.88,5,12.5S6.12,10,7.5,10h3.74C10.43,8.79,9.06,8,7.5,8C5.01,8,3,10.01,3,12.5
				S5.01,17,7.5,17C9.06,17,10.43,16.21,11.24,15z M15.87,5.16L13.61,9.7c-0.07,0.17-0.11,0.35-0.11,0.54V11h-6
				C6.67,11,6,11.67,6,12.5S6.67,14,7.5,14h10.74c-0.76,3.6-0.75,3.54-0.75,3.67c0,0.31,0.13,0.59,0.33,0.79l0.8,0.79l4.94-4.94
				c0.27-0.27,0.44-0.65,0.44-1.06V6.46c0-0.75-0.55-1.33-1.28-1.44l-5.27-0.75c-0.07-0.01-0.14-0.02-0.2-0.02
				C16.63,4.25,16.09,4.63,15.87,5.16z"/>
		</g>
	</g>
</g>
</svg>
